# Blender 3.3.1
# www.blender.org
mtllib d10.mtl
o d10.001
v 0.000000 -0.018313 0.020375
v 0.000000 0.018313 -0.020375
v 0.025893 0.004324 0.007775
v 0.016003 0.018315 0.012573
v 0.000000 0.018315 0.020351
v 0.016003 -0.018315 -0.012573
v 0.025893 -0.004324 -0.007775
v -0.016003 -0.018315 -0.012573
v 0.000000 -0.018315 -0.020351
v -0.025893 -0.004324 -0.007775
v -0.025893 0.004324 0.007775
v -0.016003 0.018315 0.012573
vn 0.4371 0.0006 0.8994
vn 0.7073 -0.6178 0.3436
vn -0.0000 -1.0000 -0.0000
vn -0.7073 -0.6178 0.3436
vn -0.4371 0.0006 0.8994
vn 0.4371 -0.0006 -0.8994
vn 0.7073 0.6178 -0.3436
vn -0.0000 1.0000 -0.0000
vn -0.7073 0.6178 -0.3436
vn -0.4371 -0.0006 -0.8994
vt 0.004887 0.705400
vt 0.004887 0.434914
vt 0.004887 0.164429
vt 0.370938 0.705346
vt 0.370938 0.434860
vt 0.627512 0.299672
vt 0.627512 0.570157
vt 0.993563 0.299617
vt 0.993563 0.570103
vt 0.993563 0.840588
vt 0.283333 0.570157
vt 0.349065 0.705400
vt 0.715117 0.164374
vt 0.283333 0.840643
vt 0.649384 0.299617
vt 0.283333 0.299672
vt 0.349065 0.434915
vt 0.283333 0.029186
vt 0.649384 0.840589
vt 0.349065 0.164429
vt 0.715117 0.975832
vt 0.715117 0.705346
vt 0.649384 0.570103
vt 0.715117 0.434860
s 0
usemtl Material.006
f 1/1/1 3/11/1 4/12/1 5/14/1
f 6/16/2 7/17/2 3/11/2 1/2/2
f 6/16/3 1/3/3 8/18/3 9/20/3
f 8/19/4 1/4/4 11/23/4 10/22/4
f 5/15/5 12/24/5 11/23/5 1/5/5
f 9/20/6 2/6/6 7/17/6 6/16/6
f 7/17/7 2/7/7 4/12/7 3/11/7
f 4/13/8 2/8/8 12/24/8 5/15/8
f 10/22/9 11/23/9 12/24/9 2/9/9
f 2/10/10 9/21/10 8/19/10 10/22/10
