# Blender 3.3.1
# www.blender.org
mtllib d12.mtl
o d12
v 0.014528 -0.004727 -0.019995
v 0.014528 -0.019995 0.004727
v 0.014528 0.019995 -0.004727
v 0.014528 0.004727 0.019995
v -0.014528 -0.004727 -0.019995
v -0.014528 -0.019995 0.004727
v -0.014528 0.019995 -0.004727
v -0.014528 0.004727 0.019995
v 0.008979 -0.020000 -0.012352
v -0.008979 -0.020000 -0.012352
v 0.008979 0.020000 0.012352
v -0.008979 0.020000 0.012352
v 0.023507 0.004718 -0.007639
v 0.023507 -0.004718 0.007639
v -0.023507 0.004718 -0.007639
v -0.023507 -0.004718 0.007639
v 0.000000 0.004713 -0.024718
v 0.000000 0.019992 -0.015282
v 0.000000 -0.019992 0.015282
v 0.000000 -0.004713 0.024718
vn -0.0000 -0.4475 -0.8943
vn 0.8507 -0.4473 -0.2763
vn 0.5257 0.4470 -0.7237
vn -0.0000 -1.0000 0.0003
vn 0.8507 0.4473 0.2763
vn -0.5257 0.4470 -0.7237
vn -0.8507 -0.4473 -0.2763
vn -0.0000 1.0000 -0.0003
vn 0.5257 -0.4470 0.7237
vn -0.5257 -0.4470 0.7237
vn -0.8507 0.4473 0.2763
vn -0.0000 0.4475 0.8943
vt 0.536070 0.792773
vt 0.368746 0.913974
vt 0.330025 0.399485
vt 0.059854 0.202601
vt 0.703045 0.914454
vt 0.266462 0.202897
vt 0.290956 0.127877
vt 0.600197 0.596368
vt 0.536633 0.399781
vt 0.561128 0.324761
vt 0.806805 0.596664
vt 0.870369 0.793252
vt 0.664888 0.006972
vt 0.497564 0.128174
vt 0.432874 0.717570
vt 0.408379 0.792590
vt 0.369310 0.520982
vt 0.472506 0.596185
vt 0.497001 0.521165
vt 0.163265 0.127694
vt 0.806242 0.989657
vt 0.330589 0.006493
vt 0.909654 0.914750
vt 0.537197 0.006789
vt 0.458280 0.006676
vt 0.575355 0.914271
vt 0.099138 0.324099
vt 0.471943 0.989177
vt 0.226829 0.324282
vt 0.703609 0.521461
vt 0.704172 0.128470
vt 0.664324 0.399964
vt 0.600761 0.203376
vt 0.639482 0.717866
vt 0.767173 0.718049
vt 0.742678 0.793069
vt 0.433437 0.324578
vt 0.394152 0.203080
s 0
usemtl Material.003
f 1/1/1 9/15/1 5/8/1 17/34/1
f 9/15/1 10/18/1 5/8/1
f 1/1/2 13/26/2 2/2/2 9/16/2
f 13/26/2 14/28/2 2/2/2
f 1/1/3 17/34/3 3/5/3 13/26/3
f 17/34/3 18/36/3 3/5/3
f 9/17/4 2/3/4 6/9/4 10/19/4
f 2/3/4 19/37/4 6/9/4
f 13/27/5 3/4/5 4/6/5 14/29/5
f 3/4/5 11/20/5 4/6/5
f 17/34/6 5/8/6 7/11/6 18/35/6
f 5/8/6 15/30/6 7/11/6
f 10/19/7 6/9/7 15/30/7 5/8/7
f 6/9/7 16/32/7 15/30/7
f 7/12/8 12/23/8 3/5/8 18/36/8
f 12/23/8 11/21/8 3/5/8
f 4/6/9 20/38/9 2/3/9 14/29/9
f 20/38/9 19/37/9 2/3/9
f 8/14/10 16/33/10 19/37/10 20/38/10
f 16/33/10 6/10/10 19/37/10
f 8/14/11 12/24/11 15/31/11 16/33/11
f 12/24/11 7/13/11 15/31/11
f 8/14/12 20/38/12 11/22/12 12/25/12
f 20/38/12 4/7/12 11/22/12
