# Blender 3.3.1
# www.blender.org
mtllib d20.mtl
o d20
v -0.024718 -0.004726 0.000000
v -0.007634 -0.020000 0.013230
v -0.012361 0.004718 0.021407
v -0.015282 0.019995 0.000000
v -0.012361 0.004718 -0.021407
v -0.007634 -0.020000 -0.013230
v 0.012361 -0.004718 0.021407
v 0.007634 0.020000 0.013230
v 0.007634 0.020000 -0.013230
v 0.012361 -0.004718 -0.021407
v 0.015282 -0.019995 0.000000
v 0.024718 0.004726 0.000000
vn -0.7453 -0.3335 0.5774
vn -0.6665 -0.7455 -0.0000
vn -0.8727 0.3331 0.3568
vn -0.8727 0.3331 -0.3568
vn -0.7453 -0.3335 -0.5774
vn 0.0002 -1.0000 -0.0000
vn -0.1272 -0.3334 0.9342
vn -0.3335 0.7453 0.5774
vn -0.3335 0.7453 -0.5774
vn -0.1272 -0.3334 -0.9342
vn 0.3335 -0.7453 0.5774
vn 0.1272 0.3334 0.9342
vn -0.0002 1.0000 -0.0000
vn 0.1272 0.3334 -0.9342
vn 0.3335 -0.7453 -0.5774
vn 0.8727 -0.3331 0.3568
vn 0.7453 0.3335 0.5774
vn 0.6665 0.7455 -0.0000
vn 0.7453 0.3335 -0.5774
vn 0.8727 -0.3331 -0.3568
vt 0.134597 0.668688
vt 0.229568 0.503410
vt 0.514483 0.007575
vt 0.419511 0.172853
vt 0.324540 0.338132
vt 0.325220 0.668298
vt 0.705106 0.007184
vt 0.230248 0.833577
vt 0.610134 0.172463
vt 0.515163 0.337741
vt 0.420191 0.503020
vt 0.420870 0.833186
vt 0.325898 0.998465
vt 0.800757 0.172072
vt 0.705785 0.337350
vt 0.610813 0.502629
vt 0.515842 0.667907
vt 0.611493 0.832795
vt 0.516521 0.998074
vt 0.896408 0.336960
vt 0.801436 0.502239
vt 0.706465 0.667517
s 0
usemtl Material.004
f 1/1/1 2/6/1 3/8/1
f 2/6/2 1/2/2 6/11/2
f 1/3/3 3/7/3 4/9/3
f 1/4/4 4/9/4 5/10/4
f 1/5/5 5/10/5 6/11/5
f 2/6/6 6/11/6 11/17/6
f 3/8/7 2/6/7 7/12/7
f 4/9/8 3/7/8 8/14/8
f 5/10/9 4/9/9 9/15/9
f 6/11/10 5/10/10 10/16/10
f 2/6/11 11/17/11 7/12/11
f 3/8/12 7/12/12 8/13/12
f 4/9/13 8/14/13 9/15/13
f 5/10/14 9/15/14 10/16/14
f 6/11/15 10/16/15 11/17/15
f 7/12/16 11/17/16 12/18/16
f 8/13/17 7/12/17 12/19/17
f 9/15/18 8/14/18 12/20/18
f 10/16/19 9/15/19 12/21/19
f 11/17/20 10/16/20 12/22/20
