# Blender 3.3.1
# www.blender.org
mtllib d8.mtl
o d8
v 0.028284 -0.019805 0.000000
v -0.028284 0.019805 0.000000
v -0.014004 -0.020000 -0.024415
v 0.014004 0.020000 0.024415
v 0.014004 0.020000 -0.024415
v -0.014004 -0.020000 0.024415
vn 0.4729 -0.3312 -0.8165
vn -0.4729 0.3312 -0.8165
vn -0.0046 1.0000 -0.0000
vn 0.9413 0.3377 -0.0000
vn 0.0046 -1.0000 -0.0000
vn -0.9413 -0.3377 -0.0000
vn -0.4729 0.3312 0.8165
vn 0.4729 -0.3312 0.8165
vt 0.993084 0.639817
vt 0.572293 0.394153
vt 0.569937 0.881401
vt 0.151501 0.148489
vt 0.711771 0.638457
vt 0.290980 0.392793
vt 0.009667 0.391433
vt 0.430459 0.637097
vt 0.851250 0.882761
vt 0.432814 0.149849
s 0
usemtl Material.002
f 5/8/1 1/2/1 3/5/1
f 5/8/2 3/5/2 2/3/2
f 5/7/3 2/4/3 4/6/3
f 5/8/4 4/6/4 1/2/4
f 6/9/5 3/5/5 1/1/5
f 6/9/6 2/3/6 3/5/6
f 6/10/7 4/6/7 2/4/7
f 6/10/8 1/2/8 4/6/8
