# Blender 3.3.1
# www.blender.org
mtllib dice.mtl
o d4
v 0.000000 0.030000 0.000000
v 0.028284 -0.010000 0.000000
v -0.014142 -0.010000 -0.024495
v -0.014142 -0.010000 0.024495
vn 0.4714 0.3333 -0.8165
vn -0.9428 0.3333 -0.0000
vn 0.4714 0.3333 0.8165
vn -0.0000 -1.0000 -0.0000
vt 0.865957 0.500000
vt 0.433025 0.749953
vt 0.433025 0.250046
vt 0.865957 0.000093
vt 0.865957 0.999907
vt 0.000093 0.500000
s 0
usemtl Material.001
f 1/1/1 2/2/1 3/3/1
f 1/1/2 3/3/2 4/4/2
f 1/1/3 4/5/3 2/2/3
f 2/2/4 4/6/4 3/3/4
