# Blender 3.3.1
# www.blender.org
mtllib cone.mtl
o Cylinder
v 0.000000 -1.000000 -1.000000
v -0.000000 1.000000 -2.964284
v 0.195090 -1.000000 -0.980785
v 0.578303 1.000000 -2.907326
v 0.382683 -1.000000 -0.923880
v 1.134382 1.000000 -2.738642
v 0.555570 -1.000000 -0.831470
v 1.646868 1.000000 -2.464712
v 0.707107 -1.000000 -0.707107
v 2.096066 1.000000 -2.096066
v 0.831470 -1.000000 -0.555570
v 2.464712 1.000000 -1.646868
v 0.923880 -1.000000 -0.382683
v 2.738642 1.000000 -1.134382
v 0.980785 -1.000000 -0.195090
v 2.907326 1.000000 -0.578303
v 1.000000 -1.000000 0.000000
v 2.964284 1.000000 0.000000
v 0.980785 -1.000000 0.195090
v 2.907326 1.000000 0.578303
v 0.923880 -1.000000 0.382683
v 2.738642 1.000000 1.134382
v 0.831470 -1.000000 0.555570
v 2.464712 1.000000 1.646868
v 0.707107 -1.000000 0.707107
v 2.096066 1.000000 2.096066
v 0.555570 -1.000000 0.831470
v 1.646868 1.000000 2.464712
v 0.382683 -1.000000 0.923880
v 1.134383 1.000000 2.738642
v 0.195090 -1.000000 0.980785
v 0.578303 1.000000 2.907326
v -0.000000 -1.000000 1.000000
v -0.000000 1.000000 2.964284
v -0.195090 -1.000000 0.980785
v -0.578303 1.000000 2.907326
v -0.382683 -1.000000 0.923880
v -1.134382 1.000000 2.738642
v -0.555570 -1.000000 0.831470
v -1.646868 1.000000 2.464712
v -0.707107 -1.000000 0.707107
v -2.096065 1.000000 2.096066
v -0.831469 -1.000000 0.555570
v -2.464712 1.000000 1.646868
v -0.923880 -1.000000 0.382684
v -2.738642 1.000000 1.134383
v -0.980785 -1.000000 0.195090
v -2.907326 1.000000 0.578303
v -1.000000 -1.000000 -0.000000
v -2.964284 1.000000 -0.000000
v -0.980785 -1.000000 -0.195090
v -2.907326 1.000000 -0.578303
v -0.923879 -1.000000 -0.382684
v -2.738641 1.000000 -1.134383
v -0.831470 -1.000000 -0.555570
v -2.464713 1.000000 -1.646868
v -0.707107 -1.000000 -0.707107
v -2.096066 1.000000 -2.096065
v -0.555570 -1.000000 -0.831470
v -1.646868 1.000000 -2.464712
v -0.382683 -1.000000 -0.923880
v -1.134382 1.000000 -2.738642
v -0.195090 -1.000000 -0.980785
v -0.578303 1.000000 -2.907326
vn -0.0701 0.6990 0.7117
vn -0.2076 0.6990 0.6843
vn -0.3371 0.6990 0.6307
vn -0.4537 0.6990 0.5528
vn -0.5528 0.6990 0.4537
vn -0.6307 0.6990 0.3371
vn -0.6843 0.6990 0.2076
vn -0.7117 0.6990 0.0701
vn -0.7117 0.6990 -0.0701
vn -0.6843 0.6990 -0.2076
vn -0.6307 0.6990 -0.3371
vn -0.5528 0.6990 -0.4537
vn -0.4537 0.6990 -0.5528
vn -0.3371 0.6990 -0.6307
vn -0.2076 0.6990 -0.6843
vn -0.0701 0.6990 -0.7117
vn 0.0701 0.6990 -0.7117
vn 0.2076 0.6990 -0.6843
vn 0.3371 0.6990 -0.6307
vn 0.4537 0.6990 -0.5528
vn 0.5528 0.6990 -0.4537
vn 0.6307 0.6990 -0.3371
vn 0.6843 0.6990 -0.2076
vn 0.7117 0.6990 -0.0701
vn 0.7117 0.6990 0.0701
vn 0.6843 0.6990 0.2076
vn 0.6307 0.6990 0.3371
vn 0.5528 0.6990 0.4537
vn 0.4537 0.6990 0.5528
vn 0.3371 0.6990 0.6307
vn 0.2076 0.6990 0.6843
vn 0.0701 0.6990 0.7117
vn -0.0000 1.0000 -0.0000
vt 1.000000 0.500000
vt 0.000000 0.500000
vt 0.750000 0.490000
vt 1.000000 1.000000
vt 0.000000 1.000000
vt 0.968750 0.500000
vt 0.796822 0.485388
vt 0.968750 1.000000
vt 0.937500 0.500000
vt 0.841844 0.471731
vt 0.937500 1.000000
vt 0.906250 0.500000
vt 0.883337 0.449553
vt 0.906250 1.000000
vt 0.875000 0.500000
vt 0.919706 0.419706
vt 0.875000 1.000000
vt 0.843750 0.500000
vt 0.949553 0.383337
vt 0.843750 1.000000
vt 0.812500 0.500000
vt 0.971731 0.341844
vt 0.812500 1.000000
vt 0.781250 0.500000
vt 0.985388 0.296822
vt 0.781250 1.000000
vt 0.750000 0.500000
vt 0.990000 0.250000
vt 0.750000 1.000000
vt 0.718750 0.500000
vt 0.985388 0.203178
vt 0.718750 1.000000
vt 0.687500 0.500000
vt 0.971731 0.158156
vt 0.687500 1.000000
vt 0.656250 0.500000
vt 0.949553 0.116663
vt 0.656250 1.000000
vt 0.625000 0.500000
vt 0.919706 0.080294
vt 0.625000 1.000000
vt 0.593750 0.500000
vt 0.883337 0.050447
vt 0.593750 1.000000
vt 0.562500 0.500000
vt 0.841844 0.028269
vt 0.562500 1.000000
vt 0.531250 0.500000
vt 0.796822 0.014612
vt 0.531250 1.000000
vt 0.500000 0.500000
vt 0.750000 0.010000
vt 0.500000 1.000000
vt 0.468750 0.500000
vt 0.703178 0.014612
vt 0.468750 1.000000
vt 0.437500 0.500000
vt 0.658156 0.028269
vt 0.437500 1.000000
vt 0.406250 0.500000
vt 0.616663 0.050447
vt 0.406250 1.000000
vt 0.375000 0.500000
vt 0.580294 0.080294
vt 0.375000 1.000000
vt 0.343750 0.500000
vt 0.550447 0.116663
vt 0.343750 1.000000
vt 0.312500 0.500000
vt 0.528269 0.158156
vt 0.312500 1.000000
vt 0.281250 0.500000
vt 0.514612 0.203178
vt 0.281250 1.000000
vt 0.250000 0.500000
vt 0.510000 0.250000
vt 0.250000 1.000000
vt 0.218750 0.500000
vt 0.514612 0.296822
vt 0.218750 1.000000
vt 0.187500 0.500000
vt 0.528269 0.341844
vt 0.187500 1.000000
vt 0.156250 0.500000
vt 0.550447 0.383337
vt 0.156250 1.000000
vt 0.125000 0.500000
vt 0.580294 0.419706
vt 0.125000 1.000000
vt 0.093750 0.500000
vt 0.616663 0.449553
vt 0.093750 1.000000
vt 0.062500 0.500000
vt 0.658156 0.471731
vt 0.062500 1.000000
vt 0.031250 0.500000
vt 0.703178 0.485388
vt 0.031250 1.000000
s 0
f 1/1/1 3/6/1 4/8/1 2/4/1
f 3/6/2 5/9/2 6/11/2 4/8/2
f 5/9/3 7/12/3 8/14/3 6/11/3
f 7/12/4 9/15/4 10/17/4 8/14/4
f 9/15/5 11/18/5 12/20/5 10/17/5
f 11/18/6 13/21/6 14/23/6 12/20/6
f 13/21/7 15/24/7 16/26/7 14/23/7
f 15/24/8 17/27/8 18/29/8 16/26/8
f 17/27/9 19/30/9 20/32/9 18/29/9
f 19/30/10 21/33/10 22/35/10 20/32/10
f 21/33/11 23/36/11 24/38/11 22/35/11
f 23/36/12 25/39/12 26/41/12 24/38/12
f 25/39/13 27/42/13 28/44/13 26/41/13
f 27/42/14 29/45/14 30/47/14 28/44/14
f 29/45/15 31/48/15 32/50/15 30/47/15
f 31/48/16 33/51/16 34/53/16 32/50/16
f 33/51/17 35/54/17 36/56/17 34/53/17
f 35/54/18 37/57/18 38/59/18 36/56/18
f 37/57/19 39/60/19 40/62/19 38/59/19
f 39/60/20 41/63/20 42/65/20 40/62/20
f 41/63/21 43/66/21 44/68/21 42/65/21
f 43/66/22 45/69/22 46/71/22 44/68/22
f 45/69/23 47/72/23 48/74/23 46/71/23
f 47/72/24 49/75/24 50/77/24 48/74/24
f 49/75/25 51/78/25 52/80/25 50/77/25
f 51/78/26 53/81/26 54/83/26 52/80/26
f 53/81/27 55/84/27 56/86/27 54/83/27
f 55/84/28 57/87/28 58/89/28 56/86/28
f 57/87/29 59/90/29 60/92/29 58/89/29
f 59/90/30 61/93/30 62/95/30 60/92/30
f 61/93/31 63/96/31 64/98/31 62/95/31
f 63/96/32 1/2/32 2/5/32 64/98/32
f 1/3/33 63/97/33 61/94/33 59/91/33 57/88/33 55/85/33 53/82/33 51/79/33 49/76/33 47/73/33 45/70/33 43/67/33 41/64/33 39/61/33 37/58/33 35/55/33 33/52/33 31/49/33 29/46/33 27/43/33 25/40/33 23/37/33 21/34/33 19/31/33 17/28/33 15/25/33 13/22/33 11/19/33 9/16/33 7/13/33 5/10/33 3/7/33
